<mxfile host="app.diagrams.net" modified="2022-02-08T12:41:25.445Z" agent="5.0 (Windows NT 10.0; Win64; x64) AppleWebKit/537.36 (KHTML, like Gecko) Chrome/97.0.4692.99 Safari/537.36" etag="MsL3t5jPbskiQg26Xh97" version="16.5.3" type="github">
  <diagram id="-LZf9AefiTZmt2H-gcMA" name="Page-1">
    <mxGraphModel dx="768" dy="420" grid="1" gridSize="10" guides="1" tooltips="1" connect="1" arrows="1" fold="1" page="1" pageScale="1" pageWidth="1169" pageHeight="1654" math="0" shadow="0">
      <root>
        <mxCell id="0" />
        <mxCell id="1" parent="0" />
        <mxCell id="YdoLaFFyJgVWIJCRqXyl-4" style="edgeStyle=orthogonalEdgeStyle;rounded=0;orthogonalLoop=1;jettySize=auto;html=1;exitX=0.5;exitY=1;exitDx=0;exitDy=0;entryX=0.5;entryY=0;entryDx=0;entryDy=0;" edge="1" parent="1" source="YdoLaFFyJgVWIJCRqXyl-1" target="YdoLaFFyJgVWIJCRqXyl-2">
          <mxGeometry relative="1" as="geometry" />
        </mxCell>
        <mxCell id="YdoLaFFyJgVWIJCRqXyl-1" value="START" style="rounded=1;whiteSpace=wrap;html=1;fillColor=#ffe6cc;strokeColor=#d79b00;" vertex="1" parent="1">
          <mxGeometry x="350" y="20" width="120" height="60" as="geometry" />
        </mxCell>
        <mxCell id="YdoLaFFyJgVWIJCRqXyl-6" style="edgeStyle=orthogonalEdgeStyle;rounded=0;orthogonalLoop=1;jettySize=auto;html=1;exitX=0.5;exitY=1;exitDx=0;exitDy=0;" edge="1" parent="1" source="YdoLaFFyJgVWIJCRqXyl-2" target="YdoLaFFyJgVWIJCRqXyl-5">
          <mxGeometry relative="1" as="geometry" />
        </mxCell>
        <mxCell id="YdoLaFFyJgVWIJCRqXyl-2" value="input array" style="shape=parallelogram;perimeter=parallelogramPerimeter;whiteSpace=wrap;html=1;fixedSize=1;fillColor=#dae8fc;strokeColor=#6c8ebf;" vertex="1" parent="1">
          <mxGeometry x="350" y="110" width="120" height="60" as="geometry" />
        </mxCell>
        <mxCell id="YdoLaFFyJgVWIJCRqXyl-14" style="edgeStyle=orthogonalEdgeStyle;rounded=0;orthogonalLoop=1;jettySize=auto;html=1;exitX=0.5;exitY=1;exitDx=0;exitDy=0;" edge="1" parent="1" source="YdoLaFFyJgVWIJCRqXyl-5" target="YdoLaFFyJgVWIJCRqXyl-12">
          <mxGeometry relative="1" as="geometry" />
        </mxCell>
        <mxCell id="YdoLaFFyJgVWIJCRqXyl-5" value="calculate half of length" style="rounded=0;whiteSpace=wrap;html=1;fillColor=#d5e8d4;strokeColor=#82b366;" vertex="1" parent="1">
          <mxGeometry x="350" y="200" width="120" height="60" as="geometry" />
        </mxCell>
        <mxCell id="YdoLaFFyJgVWIJCRqXyl-10" style="edgeStyle=orthogonalEdgeStyle;rounded=0;orthogonalLoop=1;jettySize=auto;html=1;exitX=0.5;exitY=1;exitDx=0;exitDy=0;" edge="1" parent="1" source="YdoLaFFyJgVWIJCRqXyl-7" target="YdoLaFFyJgVWIJCRqXyl-9">
          <mxGeometry relative="1" as="geometry" />
        </mxCell>
        <mxCell id="YdoLaFFyJgVWIJCRqXyl-7" value="i = 0" style="rounded=0;whiteSpace=wrap;html=1;fillColor=#d5e8d4;strokeColor=#82b366;" vertex="1" parent="1">
          <mxGeometry x="350" y="461" width="120" height="60" as="geometry" />
        </mxCell>
        <mxCell id="YdoLaFFyJgVWIJCRqXyl-19" style="edgeStyle=orthogonalEdgeStyle;rounded=0;orthogonalLoop=1;jettySize=auto;html=1;exitX=0;exitY=0.5;exitDx=0;exitDy=0;" edge="1" parent="1" source="YdoLaFFyJgVWIJCRqXyl-9" target="YdoLaFFyJgVWIJCRqXyl-17">
          <mxGeometry relative="1" as="geometry" />
        </mxCell>
        <mxCell id="YdoLaFFyJgVWIJCRqXyl-20" style="edgeStyle=orthogonalEdgeStyle;rounded=0;orthogonalLoop=1;jettySize=auto;html=1;exitX=1;exitY=0.5;exitDx=0;exitDy=0;" edge="1" parent="1" source="YdoLaFFyJgVWIJCRqXyl-9" target="YdoLaFFyJgVWIJCRqXyl-18">
          <mxGeometry relative="1" as="geometry" />
        </mxCell>
        <mxCell id="YdoLaFFyJgVWIJCRqXyl-9" value="i &amp;lt; half?" style="rhombus;whiteSpace=wrap;html=1;fillColor=#e1d5e7;strokeColor=#9673a6;" vertex="1" parent="1">
          <mxGeometry x="350" y="551" width="120" height="120" as="geometry" />
        </mxCell>
        <mxCell id="YdoLaFFyJgVWIJCRqXyl-15" style="edgeStyle=orthogonalEdgeStyle;rounded=0;orthogonalLoop=1;jettySize=auto;html=1;exitX=0.5;exitY=1;exitDx=0;exitDy=0;" edge="1" parent="1" source="YdoLaFFyJgVWIJCRqXyl-12" target="YdoLaFFyJgVWIJCRqXyl-13">
          <mxGeometry relative="1" as="geometry" />
        </mxCell>
        <mxCell id="YdoLaFFyJgVWIJCRqXyl-12" value="create array A with length = half" style="rounded=0;whiteSpace=wrap;html=1;fillColor=#d5e8d4;strokeColor=#82b366;" vertex="1" parent="1">
          <mxGeometry x="350" y="290" width="120" height="60" as="geometry" />
        </mxCell>
        <mxCell id="YdoLaFFyJgVWIJCRqXyl-16" style="edgeStyle=orthogonalEdgeStyle;rounded=0;orthogonalLoop=1;jettySize=auto;html=1;exitX=0.5;exitY=1;exitDx=0;exitDy=0;" edge="1" parent="1" source="YdoLaFFyJgVWIJCRqXyl-13" target="YdoLaFFyJgVWIJCRqXyl-7">
          <mxGeometry relative="1" as="geometry" />
        </mxCell>
        <mxCell id="YdoLaFFyJgVWIJCRqXyl-13" value="create array B with length = length of input - half" style="rounded=0;whiteSpace=wrap;html=1;fillColor=#d5e8d4;strokeColor=#82b366;" vertex="1" parent="1">
          <mxGeometry x="350" y="370" width="120" height="60" as="geometry" />
        </mxCell>
        <mxCell id="YdoLaFFyJgVWIJCRqXyl-26" style="edgeStyle=orthogonalEdgeStyle;rounded=0;orthogonalLoop=1;jettySize=auto;html=1;exitX=0;exitY=0.5;exitDx=0;exitDy=0;entryX=0;entryY=0.5;entryDx=0;entryDy=0;" edge="1" parent="1" source="YdoLaFFyJgVWIJCRqXyl-17" target="YdoLaFFyJgVWIJCRqXyl-23">
          <mxGeometry relative="1" as="geometry" />
        </mxCell>
        <mxCell id="YdoLaFFyJgVWIJCRqXyl-17" value="A[i] = input[i]" style="rounded=0;whiteSpace=wrap;html=1;fillColor=#d5e8d4;strokeColor=#82b366;" vertex="1" parent="1">
          <mxGeometry x="160" y="581" width="120" height="60" as="geometry" />
        </mxCell>
        <mxCell id="YdoLaFFyJgVWIJCRqXyl-25" style="edgeStyle=orthogonalEdgeStyle;rounded=0;orthogonalLoop=1;jettySize=auto;html=1;exitX=1;exitY=0.5;exitDx=0;exitDy=0;entryX=1;entryY=0.5;entryDx=0;entryDy=0;" edge="1" parent="1" source="YdoLaFFyJgVWIJCRqXyl-18" target="YdoLaFFyJgVWIJCRqXyl-23">
          <mxGeometry relative="1" as="geometry" />
        </mxCell>
        <mxCell id="YdoLaFFyJgVWIJCRqXyl-18" value="B[i-half] = input[i]" style="rounded=0;whiteSpace=wrap;html=1;fillColor=#d5e8d4;strokeColor=#82b366;" vertex="1" parent="1">
          <mxGeometry x="540" y="581" width="120" height="60" as="geometry" />
        </mxCell>
        <mxCell id="YdoLaFFyJgVWIJCRqXyl-21" value="calculate product of A" style="rounded=0;whiteSpace=wrap;html=1;fillColor=#d5e8d4;strokeColor=#82b366;" vertex="1" parent="1">
          <mxGeometry x="350" y="980" width="120" height="60" as="geometry" />
        </mxCell>
        <mxCell id="YdoLaFFyJgVWIJCRqXyl-22" value="calculate sum of A" style="rounded=0;whiteSpace=wrap;html=1;fillColor=#d5e8d4;strokeColor=#82b366;" vertex="1" parent="1">
          <mxGeometry x="350" y="1067" width="120" height="60" as="geometry" />
        </mxCell>
        <mxCell id="YdoLaFFyJgVWIJCRqXyl-23" value="i = i + 1" style="rounded=0;whiteSpace=wrap;html=1;fillColor=#d5e8d4;strokeColor=#82b366;" vertex="1" parent="1">
          <mxGeometry x="350" y="720" width="120" height="60" as="geometry" />
        </mxCell>
        <mxCell id="YdoLaFFyJgVWIJCRqXyl-24" value="i &amp;lt; length of input?" style="rhombus;whiteSpace=wrap;html=1;fillColor=#e1d5e7;strokeColor=#9673a6;" vertex="1" parent="1">
          <mxGeometry x="350" y="820" width="120" height="120" as="geometry" />
        </mxCell>
      </root>
    </mxGraphModel>
  </diagram>
</mxfile>
